<svg xmlns="http://www.w3.org/2000/svg" xmlns:xlink="http://www.w3.org/1999/xlink" id="processonSvg1000" viewBox="80.0 80.0 580.0 140.0" width="580.0" height="140.0"><defs id="ProcessOnDefs1001"/><g id="ProcessOnG1002"><path id="ProcessOnPath1003" d="M80.0 80.0H660.0V220.0H80.0V80.0Z" fill="none"/><g id="ProcessOnG1004"><g id="ProcessOnG1005" transform="matrix(1.0,0.0,0.0,1.0,100.0,100.0)" opacity="1.0"><path id="ProcessOnPath1006" d="M0.0 50.0C0.0 -16.666666666666668 100.0 -16.666666666666668 100.0 50.0C100.0 116.66666666666667 0.0 116.66666666666667 0.0 50.0Z" stroke="#323232" stroke-width="0.0" stroke-dasharray="none" opacity="1.0" fill="#00bcd4"/><g id="ProcessOnG1007" transform="matrix(1.0,0.0,0.0,1.0,10.0,37.5)"><text id="ProcessOnText1008" fill="#ffffff" font-weight="normal" font-style="normal" text-decoration="none" font-family="微软雅黑" text-anchor="middle" font-size="20" x="39.0" y="20.5">OOP</text></g></g><g id="ProcessOnG1009" transform="matrix(1.0,0.0,0.0,1.0,290.0,100.0)" opacity="1.0"><path id="ProcessOnPath1010" d="M50.0 0.0L100.0 100.0L0.0 100.0Z" stroke="#323232" stroke-width="0.0" stroke-dasharray="none" opacity="1.0" fill="#ff4081"/><g id="ProcessOnG1011" transform="matrix(1.0,0.0,0.0,1.0,10.0,50.0)"><text id="ProcessOnText1012" fill="#ffffff" font-weight="normal" font-style="normal" text-decoration="none" font-family="微软雅黑" text-anchor="middle" font-size="20" x="39.0" y="20.5">AOP</text></g></g><g id="ProcessOnG1013" transform="matrix(1.0,0.0,0.0,1.0,220.0,125.0)" opacity="1.0"><path id="ProcessOnPath1014" d="M18.75 0.0L31.25 0.0L31.25 18.75L50.0 18.75L50.0 31.25L31.25 31.25L31.25 50.0L18.75 50.0L18.75 31.25L0.0 31.25L0.0 18.75L18.75 18.75Z" stroke="#323232" stroke-width="0.0" stroke-dasharray="none" opacity="1.0" fill="#bdbdbd"/></g><g id="ProcessOnG1015" transform="matrix(1.0,0.0,0.0,1.0,410.0,130.0)" opacity="1.0"><path id="ProcessOnPath1016" d="M0.0 13.200000000000001L80.0 13.200000000000001L80.0 0.0L100.0 20.0L80.0 40.0L80.0 26.8L0.0 26.8L0.0 13.200000000000001Z" stroke="#323232" stroke-width="0.0" stroke-dasharray="none" opacity="1.0" fill="#bdbdbd"/></g><g id="ProcessOnG1017" transform="matrix(1.0,0.0,0.0,1.0,540.0,100.0)" opacity="1.0"><path id="ProcessOnPath1018" d="M0.0 4.0Q0.0 0.0 4.0 0.0L96.0 0.0Q100.0 0.0 100.0 4.0L100.0 96.0Q100.0 100.0 96.0 100.0L4.0 100.0Q0.0 100.0 0.0 96.0Z" stroke="#323232" stroke-width="0.0" stroke-dasharray="none" opacity="1.0" fill="#000000"/><g id="ProcessOnG1019" transform="matrix(1.0,0.0,0.0,1.0,10.0,37.5)"><text id="ProcessOnText1020" fill="#ffffff" font-weight="normal" font-style="normal" text-decoration="none" font-family="微软雅黑" text-anchor="middle" font-size="20" x="39.0" y="20.5">Better</text></g></g></g></g></svg>