<svg xmlns="http://www.w3.org/2000/svg" xmlns:xlink="http://www.w3.org/1999/xlink" id="processonSvg1000" viewBox="80.0 80.0 540.0 290.0" width="540.0" height="290.0"><defs id="ProcessOnDefs1001"><marker id="ProcessOnMarker1029" markerUnits="userSpaceOnUse" orient="auto" markerWidth="16.23606797749979" markerHeight="10.550836550532098" viewBox="-1.0 -1.3763819204711736 16.23606797749979 10.550836550532098" refX="-1.0" refY="3.8990363547948754"><path id="ProcessOnPath1030" d="M12.0 3.8990363547948754L0.0 7.798072709589751V0.0Z" stroke="#323232" stroke-width="2.0" fill="#323232" transform="matrix(1.0,0.0,0.0,1.0,0.0,0.0)"/></marker></defs><g id="ProcessOnG1002"><path id="ProcessOnPath1003" d="M80.0 80.0H620.0V370.0H80.0V80.0Z" fill="none"/><g id="ProcessOnG1004"><g id="ProcessOnG1005" transform="matrix(1.0,0.0,0.0,1.0,100.0,200.0)" opacity="1.0"><path id="ProcessOnPath1006" d="M0.0 33.0L450.0 33.0L450.0 0.0L500.0 50.0L450.0 100.0L450.0 67.0L0.0 67.0L0.0 33.0Z" stroke="#323232" stroke-width="0.0" stroke-dasharray="none" opacity="1.0" fill="#000000"/></g><g id="ProcessOnG1007" transform="matrix(1.0,0.0,0.0,1.0,280.0,200.0)" opacity="1.0"><path id="ProcessOnPath1008" d="M0.0 50.0C0.0 -16.666666666666668 100.0 -16.666666666666668 100.0 50.0C100.0 116.66666666666667 0.0 116.66666666666667 0.0 50.0Z" stroke="#323232" stroke-width="0.0" stroke-dasharray="none" opacity="1.0" fill="#ff4081"/></g><g id="ProcessOnG1009" transform="matrix(1.0,0.0,0.0,1.0,230.0,100.0)" opacity="1.0"><path id="ProcessOnPath1010" d="M0.0 0.0L200.0 0.0L200.0 40.0L0.0 40.0Z" stroke="#323232" stroke-width="0.0" stroke-dasharray="none" opacity="1.0" fill="#00bcd4"/><g id="ProcessOnG1011" transform="matrix(1.0,0.0,0.0,1.0,10.0,11.875)"><text id="ProcessOnText1012" fill="#ffffff" font-weight="normal" font-style="normal" text-decoration="none" font-family="微软雅黑" text-anchor="middle" font-size="13" x="89.0" y="13.325">通知</text></g></g><g id="ProcessOnG1013" transform="matrix(1.0,0.0,0.0,1.0,200.0,240.0)" opacity="1.0"><path id="ProcessOnPath1014" d="M0.0 10.0C0.0 -3.3333333333333335 20.0 -3.3333333333333335 20.0 10.0C20.0 23.333333333333332 0.0 23.333333333333332 0.0 10.0Z" stroke="#323232" stroke-width="0.0" stroke-dasharray="none" opacity="1.0" fill="#ffffff"/></g><g id="ProcessOnG1015" transform="matrix(1.0,0.0,0.0,1.0,240.0,240.0)" opacity="1.0"><path id="ProcessOnPath1016" d="M0.0 10.0C0.0 -3.3333333333333335 20.0 -3.3333333333333335 20.0 10.0C20.0 23.333333333333332 0.0 23.333333333333332 0.0 10.0Z" stroke="#323232" stroke-width="0.0" stroke-dasharray="none" opacity="1.0" fill="#ffffff"/></g><g id="ProcessOnG1017" transform="matrix(1.0,0.0,0.0,1.0,280.0,240.0)" opacity="1.0"><path id="ProcessOnPath1018" d="M0.0 10.0C0.0 -3.3333333333333335 20.0 -3.3333333333333335 20.0 10.0C20.0 23.333333333333332 0.0 23.333333333333332 0.0 10.0Z" stroke="#323232" stroke-width="0.0" stroke-dasharray="none" opacity="1.0" fill="#ffffff"/></g><g id="ProcessOnG1019" transform="matrix(1.0,0.0,0.0,1.0,320.0,240.0)" opacity="1.0"><path id="ProcessOnPath1020" d="M0.0 10.0C0.0 -3.3333333333333335 20.0 -3.3333333333333335 20.0 10.0C20.0 23.333333333333332 0.0 23.333333333333332 0.0 10.0Z" stroke="#323232" stroke-width="0.0" stroke-dasharray="none" opacity="1.0" fill="#ffffff"/></g><g id="ProcessOnG1021" transform="matrix(1.0,0.0,0.0,1.0,360.0,240.0)" opacity="1.0"><path id="ProcessOnPath1022" d="M0.0 10.0C0.0 -3.3333333333333335 20.0 -3.3333333333333335 20.0 10.0C20.0 23.333333333333332 0.0 23.333333333333332 0.0 10.0Z" stroke="#323232" stroke-width="0.0" stroke-dasharray="none" opacity="1.0" fill="#ffffff"/></g><g id="ProcessOnG1023" transform="matrix(1.0,0.0,0.0,1.0,400.0,240.0)" opacity="1.0"><path id="ProcessOnPath1024" d="M0.0 10.0C0.0 -3.3333333333333335 20.0 -3.3333333333333335 20.0 10.0C20.0 23.333333333333332 0.0 23.333333333333332 0.0 10.0Z" stroke="#323232" stroke-width="0.0" stroke-dasharray="none" opacity="1.0" fill="#ffffff"/></g><g id="ProcessOnG1025" transform="matrix(1.0,0.0,0.0,1.0,440.0,240.0)" opacity="1.0"><path id="ProcessOnPath1026" d="M0.0 10.0C0.0 -3.3333333333333335 20.0 -3.3333333333333335 20.0 10.0C20.0 23.333333333333332 0.0 23.333333333333332 0.0 10.0Z" stroke="#323232" stroke-width="0.0" stroke-dasharray="none" opacity="1.0" fill="#ffffff"/></g><g id="ProcessOnG1027"><path id="ProcessOnPath1028" d="M330.0 140.0L330.0 170.0L330.0 170.0L330.0 184.7639320225002" stroke="#323232" stroke-width="2.0" stroke-dasharray="none" fill="none" marker-end="url(#ProcessOnMarker1029)"/></g><g id="ProcessOnG1031" transform="matrix(1.0,0.0,0.0,1.0,160.0,150.0)" opacity="1.0"><path id="ProcessOnPath1032" d="M0.0 0.0L60.0 0.0L60.0 40.0L0.0 40.0Z" stroke="#323232" stroke-width="0.0" stroke-dasharray="none" opacity="1.0" fill="#ffffff"/><g id="ProcessOnG1033" transform="matrix(1.0,0.0,0.0,1.0,10.0,11.875)"><text id="ProcessOnText1034" fill="#000000" font-weight="normal" font-style="normal" text-decoration="none" font-family="微软雅黑" text-anchor="middle" font-size="13" x="19.0" y="13.325">切点</text></g></g><g id="ProcessOnG1035" transform="matrix(1.0,0.0,0.0,1.0,440.0,150.0)" opacity="1.0"><path id="ProcessOnPath1036" d="M0.0 0.0L100.0 0.0L100.0 40.0L0.0 40.0Z" stroke="#323232" stroke-width="0.0" stroke-dasharray="none" opacity="1.0" fill="#ffffff"/><g id="ProcessOnG1037" transform="matrix(1.0,0.0,0.0,1.0,10.0,11.875)"><text id="ProcessOnText1038" fill="#000000" font-weight="normal" font-style="normal" text-decoration="none" font-family="微软雅黑" text-anchor="middle" font-size="13" x="39.0" y="13.325">程序执行过程</text></g></g><g id="ProcessOnG1039"><path id="ProcessOnPath1040" d="M490.0 190.0L468.0 233.0" stroke="#323232" stroke-width="1.0" stroke-dasharray="5.0 2.0" fill="none"/></g><g id="ProcessOnG1041"><path id="ProcessOnPath1042" d="M190.0 190.0L292.2981333293569 216.9283628290596" stroke="#323232" stroke-width="1.0" stroke-dasharray="5.0 2.0" fill="none"/></g><g id="ProcessOnG1043" transform="matrix(1.0,0.0,0.0,1.0,160.0,310.0)" opacity="1.0"><path id="ProcessOnPath1044" d="M0.0 0.0L60.0 0.0L60.0 40.0L0.0 40.0Z" stroke="#323232" stroke-width="0.0" stroke-dasharray="none" opacity="1.0" fill="#ffffff"/><g id="ProcessOnG1045" transform="matrix(1.0,0.0,0.0,1.0,10.0,3.75)"><text id="ProcessOnText1046" fill="#000000" font-weight="normal" font-style="normal" text-decoration="none" font-family="微软雅黑" text-anchor="middle" font-size="13" x="19.0" y="13.325">连接</text><text id="ProcessOnText1047" fill="#000000" font-weight="normal" font-style="normal" text-decoration="none" font-family="微软雅黑" text-anchor="middle" font-size="13" x="19.0" y="29.575">点</text></g></g><g id="ProcessOnG1048"><path id="ProcessOnPath1049" d="M190.0 310.0L210.0 260.0" stroke="#323232" stroke-width="1.0" stroke-dasharray="5.0 2.0" fill="none"/></g></g></g></svg>