<svg xmlns="http://www.w3.org/2000/svg" xmlns:xlink="http://www.w3.org/1999/xlink" id="processonSvg1000" viewBox="80.0 30.0 540.0 290.0" width="540.0" height="290.0"><defs id="ProcessOnDefs1001"/><g id="ProcessOnG1002"><path id="ProcessOnPath1003" d="M80.0 30.0H620.0V320.0H80.0V30.0Z" fill="none"/><g id="ProcessOnG1004"><g id="ProcessOnG1005" transform="matrix(1.0,0.0,0.0,1.0,100.0,100.0)" opacity="1.0"><path id="ProcessOnPath1006" d="M0.0 0.0L500.0 0.0L500.0 40.0L0.0 40.0Z" stroke="#323232" stroke-width="0.0" stroke-dasharray="none" opacity="1.0" fill="#00bcd4"/><g id="ProcessOnG1007" transform="matrix(1.0,0.0,0.0,1.0,10.0,11.875)"><text id="ProcessOnText1008" fill="#ffffff" font-weight="normal" font-style="normal" text-decoration="none" font-family="微软雅黑" text-anchor="start" font-size="13" x="0.0" y="13.325">UserService</text></g></g><g id="ProcessOnG1009" transform="matrix(1.0,0.0,0.0,1.0,100.0,160.0)" opacity="1.0"><path id="ProcessOnPath1010" d="M0.0 0.0L500.0 0.0L500.0 40.0L0.0 40.0Z" stroke="#323232" stroke-width="0.0" stroke-dasharray="none" opacity="1.0" fill="#00bcd4"/><g id="ProcessOnG1011" transform="matrix(1.0,0.0,0.0,1.0,10.0,11.875)"><text id="ProcessOnText1012" fill="#ffffff" font-weight="normal" font-style="normal" text-decoration="none" font-family="微软雅黑" text-anchor="start" font-size="13" x="0.0" y="13.325">TweetService</text></g></g><g id="ProcessOnG1013" transform="matrix(1.0,0.0,0.0,1.0,100.0,220.0)" opacity="1.0"><path id="ProcessOnPath1014" d="M0.0 0.0L500.0 0.0L500.0 40.0L0.0 40.0Z" stroke="#000000" stroke-width="0.0" stroke-dasharray="none" opacity="1.0" fill="#00bcd4"/><g id="ProcessOnG1015" transform="matrix(1.0,0.0,0.0,1.0,10.0,11.875)"><text id="ProcessOnText1016" fill="#ffffff" font-weight="normal" font-style="normal" text-decoration="none" font-family="微软雅黑" text-anchor="start" font-size="13" x="0.0" y="13.325">MiscService</text></g></g><g id="ProcessOnG1017" transform="matrix(1.0,0.0,0.0,1.0,220.0,60.0)" opacity="1.0"><path id="ProcessOnPath1018" d="M0.0 0.0L40.0 0.0L40.0 240.0L0.0 240.0Z" stroke="#323232" stroke-width="0.0" stroke-dasharray="none" opacity="1.0" fill="#ff4081"/><g id="ProcessOnG1019" transform="matrix(1.0,0.0,0.0,1.0,10.0,103.75)"><text id="ProcessOnText1020" fill="#ffffff" font-weight="normal" font-style="normal" text-decoration="none" font-family="微软雅黑" text-anchor="middle" font-size="13" x="9.0" y="13.325">安</text><text id="ProcessOnText1021" fill="#ffffff" font-weight="normal" font-style="normal" text-decoration="none" font-family="微软雅黑" text-anchor="middle" font-size="13" x="9.0" y="29.575">全</text></g></g><g id="ProcessOnG1022" transform="matrix(1.0,0.0,0.0,1.0,340.0,60.0)" opacity="1.0"><path id="ProcessOnPath1023" d="M0.0 0.0L40.0 0.0L40.0 240.0L0.0 240.0Z" stroke="#323232" stroke-width="0.0" stroke-dasharray="none" opacity="1.0" fill="#ff4081"/><g id="ProcessOnG1024" transform="matrix(1.0,0.0,0.0,1.0,10.0,103.75)"><text id="ProcessOnText1025" fill="#ffffff" font-weight="normal" font-style="normal" text-decoration="none" font-family="微软雅黑" text-anchor="middle" font-size="13" x="9.0" y="13.325">事</text><text id="ProcessOnText1026" fill="#ffffff" font-weight="normal" font-style="normal" text-decoration="none" font-family="微软雅黑" text-anchor="middle" font-size="13" x="9.0" y="29.575">务</text></g></g><g id="ProcessOnG1027" transform="matrix(1.0,0.0,0.0,1.0,460.0,60.0)" opacity="1.0"><path id="ProcessOnPath1028" d="M0.0 0.0L40.0 0.0L40.0 240.0L0.0 240.0Z" stroke="#323232" stroke-width="0.0" stroke-dasharray="none" opacity="1.0" fill="#ff4081"/><g id="ProcessOnG1029" transform="matrix(1.0,0.0,0.0,1.0,10.0,103.75)"><text id="ProcessOnText1030" fill="#ffffff" font-weight="normal" font-style="normal" text-decoration="none" font-family="微软雅黑" text-anchor="middle" font-size="13" x="9.0" y="13.325">其</text><text id="ProcessOnText1031" fill="#ffffff" font-weight="normal" font-style="normal" text-decoration="none" font-family="微软雅黑" text-anchor="middle" font-size="13" x="9.0" y="29.575">他</text></g></g><g id="ProcessOnG1032" transform="matrix(1.0,0.0,0.0,1.0,100.0,50.0)" opacity="1.0"><path id="ProcessOnPath1033" d="M0.0 0.0L110.0 0.0L110.0 30.0L0.0 30.0Z" stroke="#323232" stroke-width="0.0" stroke-dasharray="none" opacity="1.0" fill="#ffffff"/><g id="ProcessOnG1034" transform="matrix(1.0,0.0,0.0,1.0,10.0,6.875)"><text id="ProcessOnText1035" fill="#000000" font-weight="normal" font-style="normal" text-decoration="none" font-family="微软雅黑" text-anchor="start" font-size="13" x="0.0" y="13.325">Service layer</text></g></g></g></g></svg>